# xmcd
#
# Track frame offsets: 
#        150
#        14038
#        35829
#        60598
#        81481
#        104070
#        125151
#        144034
#        163243
#        190849
#        205817
#        223190
#        242247
#        271221
#
# Disc length: 4770 seconds
#
# Revision: 1
# Processed by: cddbd v1.5.2PL0 Copyright (c) Steve Scherf et al.
# Submitted via: ExactAudioCopy v0.99pb3
#
DISCID=dd12a00e
DTITLE=Chris Rea - Stony Road
DYEAR=2002
DGENRE=Blues
TTITLE0=Changing times
TTITLE1=Easy rider
TTITLE2=Stony road
TTITLE3=Dancing the blues away
TTITLE4=Burning feet
TTITLE5=Mississippi
TTITLE6=Slow dance
TTITLE7=When the good Lord talked to Jesus
TTITLE8=Heading for the city
TTITLE9=So lonely
TTITLE10=Someday my peace will come
TTITLE11=The hustler
TTITLE12=Give that girl a diamond
TTITLE13=Unknown
EXTD=
EXTT0=
EXTT1=
EXTT2=
EXTT3=
EXTT4=
EXTT5=
EXTT6=
EXTT7=
EXTT8=
EXTT9=
EXTT10=
EXTT11=
EXTT12=
EXTT13=
PLAYORDER=
